<mxfile host="Electron" modified="2023-04-30T04:40:49.126Z" agent="Mozilla/5.0 (Windows NT 10.0; Win64; x64) AppleWebKit/537.36 (KHTML, like Gecko) draw.io/21.1.2 Chrome/106.0.5249.199 Electron/21.4.3 Safari/537.36" etag="6OiWILCZ9nvIm3WKS5O1" version="21.1.2" type="device">
  <diagram name="Admin" id="fjwuFHZYpNOX4wre5BCR">
    <mxGraphModel dx="1518" dy="740" grid="1" gridSize="10" guides="1" tooltips="1" connect="1" arrows="1" fold="1" page="1" pageScale="1" pageWidth="850" pageHeight="1100" math="0" shadow="0">
      <root>
        <mxCell id="0" />
        <mxCell id="1" parent="0" />
        <mxCell id="Jd3R5-ZXTsf17rILLIj6-1" value="Admin" style="shape=umlActor;verticalLabelPosition=bottom;verticalAlign=top;html=1;outlineConnect=0;" parent="1" vertex="1">
          <mxGeometry x="120" y="510" width="30" height="70" as="geometry" />
        </mxCell>
        <mxCell id="Jd3R5-ZXTsf17rILLIj6-3" value="" style="whiteSpace=wrap;html=1;aspect=fixed;fillColor=#dae8fc;strokeColor=#6c8ebf;" parent="1" vertex="1">
          <mxGeometry x="277.5" y="328" width="445" height="445" as="geometry" />
        </mxCell>
        <mxCell id="Jd3R5-ZXTsf17rILLIj6-2" value="Login" style="ellipse;whiteSpace=wrap;html=1;fillColor=#fff2cc;strokeColor=#d6b656;" parent="1" vertex="1">
          <mxGeometry x="442.5" y="420" width="115" height="80" as="geometry" />
        </mxCell>
        <mxCell id="EdmM1rZS4--3qe9CLnAn-1" value="Logout" style="ellipse;whiteSpace=wrap;html=1;fillColor=#fff2cc;strokeColor=#d6b656;" parent="1" vertex="1">
          <mxGeometry x="442.5" y="590" width="115" height="80" as="geometry" />
        </mxCell>
        <mxCell id="EdmM1rZS4--3qe9CLnAn-2" value="" style="endArrow=none;html=1;rounded=0;entryX=0.5;entryY=0.5;entryDx=0;entryDy=0;entryPerimeter=0;exitX=0;exitY=0.5;exitDx=0;exitDy=0;" parent="1" source="Jd3R5-ZXTsf17rILLIj6-2" target="Jd3R5-ZXTsf17rILLIj6-1" edge="1">
          <mxGeometry width="50" height="50" relative="1" as="geometry">
            <mxPoint x="400" y="560" as="sourcePoint" />
            <mxPoint x="450" y="510" as="targetPoint" />
          </mxGeometry>
        </mxCell>
        <mxCell id="EdmM1rZS4--3qe9CLnAn-3" value="" style="endArrow=none;html=1;rounded=0;entryX=0.5;entryY=0.5;entryDx=0;entryDy=0;entryPerimeter=0;exitX=0;exitY=0.5;exitDx=0;exitDy=0;" parent="1" source="EdmM1rZS4--3qe9CLnAn-1" target="Jd3R5-ZXTsf17rILLIj6-1" edge="1">
          <mxGeometry width="50" height="50" relative="1" as="geometry">
            <mxPoint x="452.5" y="470" as="sourcePoint" />
            <mxPoint x="145" y="555" as="targetPoint" />
          </mxGeometry>
        </mxCell>
        <mxCell id="p8_eBhFcITzLxwone0SJ-21" value="" style="group" vertex="1" connectable="0" parent="1">
          <mxGeometry x="1330" y="340" width="602.5" height="445" as="geometry" />
        </mxCell>
        <mxCell id="p8_eBhFcITzLxwone0SJ-1" value="Admin" style="shape=umlActor;verticalLabelPosition=bottom;verticalAlign=top;html=1;outlineConnect=0;" vertex="1" parent="p8_eBhFcITzLxwone0SJ-21">
          <mxGeometry y="182" width="30" height="70" as="geometry" />
        </mxCell>
        <mxCell id="p8_eBhFcITzLxwone0SJ-2" value="" style="whiteSpace=wrap;html=1;aspect=fixed;fillColor=#dae8fc;strokeColor=#6c8ebf;" vertex="1" parent="p8_eBhFcITzLxwone0SJ-21">
          <mxGeometry x="157.5" width="445" height="445" as="geometry" />
        </mxCell>
        <mxCell id="p8_eBhFcITzLxwone0SJ-3" value="Create user account" style="ellipse;whiteSpace=wrap;html=1;fillColor=#fff2cc;strokeColor=#d6b656;" vertex="1" parent="p8_eBhFcITzLxwone0SJ-21">
          <mxGeometry x="322.5" y="92" width="115" height="80" as="geometry" />
        </mxCell>
        <mxCell id="p8_eBhFcITzLxwone0SJ-4" value="Delete User Account" style="ellipse;whiteSpace=wrap;html=1;fillColor=#fff2cc;strokeColor=#d6b656;" vertex="1" parent="p8_eBhFcITzLxwone0SJ-21">
          <mxGeometry x="322.5" y="262" width="115" height="80" as="geometry" />
        </mxCell>
        <mxCell id="p8_eBhFcITzLxwone0SJ-5" value="" style="endArrow=none;html=1;rounded=0;entryX=0.5;entryY=0.5;entryDx=0;entryDy=0;entryPerimeter=0;exitX=0;exitY=0.5;exitDx=0;exitDy=0;" edge="1" parent="p8_eBhFcITzLxwone0SJ-21" source="p8_eBhFcITzLxwone0SJ-3" target="p8_eBhFcITzLxwone0SJ-1">
          <mxGeometry width="50" height="50" relative="1" as="geometry">
            <mxPoint x="280" y="232" as="sourcePoint" />
            <mxPoint x="330" y="182" as="targetPoint" />
          </mxGeometry>
        </mxCell>
        <mxCell id="p8_eBhFcITzLxwone0SJ-6" value="" style="endArrow=none;html=1;rounded=0;entryX=0.5;entryY=0.5;entryDx=0;entryDy=0;entryPerimeter=0;exitX=0;exitY=0.5;exitDx=0;exitDy=0;" edge="1" parent="p8_eBhFcITzLxwone0SJ-21" source="p8_eBhFcITzLxwone0SJ-4" target="p8_eBhFcITzLxwone0SJ-1">
          <mxGeometry width="50" height="50" relative="1" as="geometry">
            <mxPoint x="332.5" y="142" as="sourcePoint" />
            <mxPoint x="25" y="227" as="targetPoint" />
          </mxGeometry>
        </mxCell>
        <mxCell id="p8_eBhFcITzLxwone0SJ-7" value="Edit user account" style="ellipse;whiteSpace=wrap;html=1;fillColor=#fff2cc;strokeColor=#d6b656;" vertex="1" parent="p8_eBhFcITzLxwone0SJ-21">
          <mxGeometry x="322.5" y="177" width="115" height="80" as="geometry" />
        </mxCell>
        <mxCell id="p8_eBhFcITzLxwone0SJ-8" value="" style="endArrow=none;html=1;rounded=0;entryX=0.5;entryY=0.5;entryDx=0;entryDy=0;entryPerimeter=0;exitX=0;exitY=0.5;exitDx=0;exitDy=0;" edge="1" parent="p8_eBhFcITzLxwone0SJ-21" source="p8_eBhFcITzLxwone0SJ-7" target="p8_eBhFcITzLxwone0SJ-1">
          <mxGeometry width="50" height="50" relative="1" as="geometry">
            <mxPoint x="332.5" y="312" as="sourcePoint" />
            <mxPoint x="25" y="227" as="targetPoint" />
          </mxGeometry>
        </mxCell>
        <mxCell id="p8_eBhFcITzLxwone0SJ-22" value="" style="group" vertex="1" connectable="0" parent="1">
          <mxGeometry x="290" y="1310" width="602.5" height="445" as="geometry" />
        </mxCell>
        <mxCell id="p8_eBhFcITzLxwone0SJ-9" value="Admin" style="shape=umlActor;verticalLabelPosition=bottom;verticalAlign=top;html=1;outlineConnect=0;" vertex="1" parent="p8_eBhFcITzLxwone0SJ-22">
          <mxGeometry y="182" width="30" height="70" as="geometry" />
        </mxCell>
        <mxCell id="p8_eBhFcITzLxwone0SJ-10" value="" style="whiteSpace=wrap;html=1;aspect=fixed;fillColor=#dae8fc;strokeColor=#6c8ebf;" vertex="1" parent="p8_eBhFcITzLxwone0SJ-22">
          <mxGeometry x="157.5" width="445" height="445" as="geometry" />
        </mxCell>
        <mxCell id="p8_eBhFcITzLxwone0SJ-11" value="manage user accounts" style="ellipse;whiteSpace=wrap;html=1;fillColor=#fff2cc;strokeColor=#d6b656;" vertex="1" parent="p8_eBhFcITzLxwone0SJ-22">
          <mxGeometry x="322.5" y="92" width="115" height="80" as="geometry" />
        </mxCell>
        <mxCell id="p8_eBhFcITzLxwone0SJ-12" value="manage website content" style="ellipse;whiteSpace=wrap;html=1;fillColor=#fff2cc;strokeColor=#d6b656;" vertex="1" parent="p8_eBhFcITzLxwone0SJ-22">
          <mxGeometry x="322.5" y="262" width="115" height="80" as="geometry" />
        </mxCell>
        <mxCell id="p8_eBhFcITzLxwone0SJ-13" value="" style="endArrow=none;html=1;rounded=0;entryX=0.5;entryY=0.5;entryDx=0;entryDy=0;entryPerimeter=0;exitX=0;exitY=0.5;exitDx=0;exitDy=0;" edge="1" parent="p8_eBhFcITzLxwone0SJ-22" source="p8_eBhFcITzLxwone0SJ-11" target="p8_eBhFcITzLxwone0SJ-9">
          <mxGeometry width="50" height="50" relative="1" as="geometry">
            <mxPoint x="280" y="232" as="sourcePoint" />
            <mxPoint x="330" y="182" as="targetPoint" />
          </mxGeometry>
        </mxCell>
        <mxCell id="p8_eBhFcITzLxwone0SJ-14" value="" style="endArrow=none;html=1;rounded=0;entryX=0.5;entryY=0.5;entryDx=0;entryDy=0;entryPerimeter=0;exitX=0;exitY=0.5;exitDx=0;exitDy=0;" edge="1" parent="p8_eBhFcITzLxwone0SJ-22" source="p8_eBhFcITzLxwone0SJ-12" target="p8_eBhFcITzLxwone0SJ-9">
          <mxGeometry width="50" height="50" relative="1" as="geometry">
            <mxPoint x="332.5" y="142" as="sourcePoint" />
            <mxPoint x="25" y="227" as="targetPoint" />
          </mxGeometry>
        </mxCell>
        <mxCell id="p8_eBhFcITzLxwone0SJ-23" value="" style="group" vertex="1" connectable="0" parent="1">
          <mxGeometry x="1460" y="1320" width="602.5" height="445" as="geometry" />
        </mxCell>
        <mxCell id="p8_eBhFcITzLxwone0SJ-15" value="Organization&lt;br&gt;" style="shape=umlActor;verticalLabelPosition=bottom;verticalAlign=top;html=1;outlineConnect=0;" vertex="1" parent="p8_eBhFcITzLxwone0SJ-23">
          <mxGeometry y="182" width="30" height="70" as="geometry" />
        </mxCell>
        <mxCell id="p8_eBhFcITzLxwone0SJ-16" value="" style="whiteSpace=wrap;html=1;aspect=fixed;fillColor=#dae8fc;strokeColor=#6c8ebf;" vertex="1" parent="p8_eBhFcITzLxwone0SJ-23">
          <mxGeometry x="157.5" width="445" height="445" as="geometry" />
        </mxCell>
        <mxCell id="p8_eBhFcITzLxwone0SJ-17" value="Login" style="ellipse;whiteSpace=wrap;html=1;fillColor=#fff2cc;strokeColor=#d6b656;" vertex="1" parent="p8_eBhFcITzLxwone0SJ-23">
          <mxGeometry x="322.5" y="92" width="115" height="80" as="geometry" />
        </mxCell>
        <mxCell id="p8_eBhFcITzLxwone0SJ-18" value="Logout" style="ellipse;whiteSpace=wrap;html=1;fillColor=#fff2cc;strokeColor=#d6b656;" vertex="1" parent="p8_eBhFcITzLxwone0SJ-23">
          <mxGeometry x="322.5" y="262" width="115" height="80" as="geometry" />
        </mxCell>
        <mxCell id="p8_eBhFcITzLxwone0SJ-19" value="" style="endArrow=none;html=1;rounded=0;entryX=0.5;entryY=0.5;entryDx=0;entryDy=0;entryPerimeter=0;exitX=0;exitY=0.5;exitDx=0;exitDy=0;" edge="1" parent="p8_eBhFcITzLxwone0SJ-23" source="p8_eBhFcITzLxwone0SJ-17" target="p8_eBhFcITzLxwone0SJ-15">
          <mxGeometry width="50" height="50" relative="1" as="geometry">
            <mxPoint x="280" y="232" as="sourcePoint" />
            <mxPoint x="330" y="182" as="targetPoint" />
          </mxGeometry>
        </mxCell>
        <mxCell id="p8_eBhFcITzLxwone0SJ-20" value="" style="endArrow=none;html=1;rounded=0;entryX=0.5;entryY=0.5;entryDx=0;entryDy=0;entryPerimeter=0;exitX=0;exitY=0.5;exitDx=0;exitDy=0;" edge="1" parent="p8_eBhFcITzLxwone0SJ-23" source="p8_eBhFcITzLxwone0SJ-18" target="p8_eBhFcITzLxwone0SJ-15">
          <mxGeometry width="50" height="50" relative="1" as="geometry">
            <mxPoint x="332.5" y="142" as="sourcePoint" />
            <mxPoint x="25" y="227" as="targetPoint" />
          </mxGeometry>
        </mxCell>
      </root>
    </mxGraphModel>
  </diagram>
</mxfile>
